<?xml version="1.0" encoding="UTF-8"?>
<svg width="40px" height="40px" viewBox="0 0 40 40" version="1.1" xmlns="http://www.w3.org/2000/svg" xmlns:xlink="http://www.w3.org/1999/xlink">
    <!-- Generator: Sketch 53.2 (72643) - https://sketchapp.com -->
    <title>006-twitter</title>
    <desc>Created with Sketch.</desc>
    <g id="Page-1" stroke="none" stroke-width="1" fill="none" fill-rule="evenodd">
        <g id="T3.1a-Blog-post" transform="translate(-1146.000000, -5745.000000)" fill-rule="nonzero">
            <g id="Footer" transform="translate(0.000000, 5711.000000)">
                <g id="Group" transform="translate(1146.000000, 34.000000)">
                    <g id="006-twitter">
                        <path d="M19.9532877,0 C30.9738356,0 39.9067123,8.93410959 39.9067123,19.9534247 C39.9067123,30.9739726 30.9738356,39.9067123 19.9532877,39.9067123 C8.93273973,39.9067123 0,30.9738356 0,19.9534247 C0,8.93410959 8.93287671,0 19.9532877,0 Z" id="Path" fill="#26A6D1"></path>
                        <path d="M32.4279452,13.4423288 C31.5563014,13.8189041 30.6183562,14.0720548 29.6345205,14.1868493 C30.639726,13.6019178 31.410411,12.6778082 31.7732877,11.5742466 C30.8330137,12.1167123 29.7928767,12.509589 28.6842466,12.720274 C27.7975342,11.8036986 26.5342466,11.2312329 25.1350685,11.2312329 C22.4513699,11.2312329 20.2739726,13.3426027 20.2739726,15.9489041 C20.2739726,16.3193151 20.3164384,16.679726 20.399863,17.0252055 C16.3593151,16.8282192 12.7752055,14.9487671 10.3783562,12.0942466 C9.95931507,12.7913699 9.71986301,13.6006849 9.71986301,14.4661644 C9.71986301,16.1023288 10.5778082,17.5489041 11.8823288,18.3932877 C11.0842466,18.3683562 10.3358904,18.1575342 9.67876712,17.8021918 L9.67876712,17.8620548 C9.67876712,20.1491781 11.3547945,22.0560274 13.579589,22.49 C13.1717808,22.5972603 12.7427397,22.6558904 12.2987671,22.6558904 C11.9857534,22.6558904 11.6815068,22.6272603 11.3846575,22.5710959 C12.0031507,24.4467123 13.7990411,25.8109589 15.9278082,25.8484932 C14.2630137,27.1154795 12.1665753,27.8687671 9.88821918,27.8687671 C9.49534247,27.8687671 9.10876712,27.8463014 8.72712329,27.8027397 C10.8808219,29.1420548 13.4349315,29.9239726 16.1821918,29.9239726 C25.1263014,29.9239726 30.0173973,22.7308219 30.0173973,16.4953425 L30.0036986,15.8842466 C30.9513699,15.2206849 31.7757534,14.390137 32.4279452,13.4423288 Z" id="Path" fill="#FFFFFF"></path>
                    </g>
                </g>
            </g>
        </g>
    </g>
</svg>