<?xml version="1.0" encoding="UTF-8"?>
<svg width="113px" height="134px" viewBox="0 0 113 134" version="1.1" xmlns="http://www.w3.org/2000/svg" xmlns:xlink="http://www.w3.org/1999/xlink">
    <!-- Generator: Sketch 53.2 (72643) - https://sketchapp.com -->
    <title>Group</title>
    <desc>Created with Sketch.</desc>
    <g id="Page-1" stroke="none" stroke-width="1" fill="none" fill-rule="evenodd">
        <g id="TPX-Questers-CMYK" transform="translate(-60.000000, -71.000000)">
            <g id="Group" transform="translate(60.392000, 71.041000)">
                <polyline id="Fill-1" fill="#FBDF38" points="106.526 118.848 61.322 73.645 106.526 28.442 106.526 118.848"></polyline>
                <polyline id="Fill-2" fill="#1F9996" points="89.743 0 112.345 22.602 89.743 45.204 89.743 0"></polyline>
                <polyline id="Fill-3" fill="#E26156" points="75.762 88.092 98.363 110.694 75.762 133.296 75.762 88.092"></polyline>
                <path d="M17.092,37.94 L17.092,14.13 L26.106,14.13 L26.106,7.667 L-7.10542736e-15,7.667 L-7.10542736e-15,14.13 L9.014,14.13 L9.014,37.94 L17.092,37.94 Z M28.487,37.94 L36.48,37.94 L36.48,26.12 L42.9,26.12 C46.302,26.12 48.966,25.285 50.894,23.612 C52.821,21.94 53.785,19.7 53.785,16.894 C53.785,14.06 52.835,11.813 50.936,10.155 C49.037,8.497 46.358,7.667 42.9,7.667 L28.487,7.667 L28.487,37.94 Z M36.48,20.168 L36.48,13.705 L41.837,13.705 C43.396,13.705 44.537,13.981 45.26,14.534 C45.983,15.087 46.344,15.902 46.344,16.979 C46.344,19.105 44.842,20.168 41.837,20.168 L36.48,20.168 Z M83.378,7.667 L74.109,7.667 L67.433,16.851 L60.886,7.667 L51.659,7.667 L62.927,22.634 L51.404,37.94 L60.673,37.94 L67.476,28.501 L74.236,37.94 L83.548,37.94 L71.983,22.634 L83.378,7.667 L83.378,7.667 Z" id="Fill-4" fill="#6F8F9D"></path>
            </g>
        </g>
    </g>
</svg>