<?xml version="1.0" encoding="UTF-8"?>
<svg width="40px" height="34px" viewBox="0 0 40 34" version="1.1" xmlns="http://www.w3.org/2000/svg" xmlns:xlink="http://www.w3.org/1999/xlink">
    <!-- Generator: Sketch 53.2 (72643) - https://sketchapp.com -->
    <title>002-medium-1</title>
    <desc>Created with Sketch.</desc>
    <g id="Page-1" stroke="none" stroke-width="1" fill="none" fill-rule="evenodd">
        <g id="T3.1a-Blog-post" transform="translate(-1203.000000, -5748.000000)" fill-rule="nonzero">
            <g id="Footer" transform="translate(0.000000, 5711.000000)">
                <g id="Group" transform="translate(1146.000000, 34.000000)">
                    <g id="002-medium-1" transform="translate(57.000000, 3.000000)">
                        <path d="M38.9893401,33.9166497 L26.684264,28.0012183 L26.5915736,1.1857868 C26.5894416,0.559796954 27.2429442,0.147309645 27.8071066,0.41857868 L39.4728934,6.02832487 C39.766599,6.16954315 39.953401,6.46670051 39.953401,6.79258883 L39.953401,33.3104569 C39.9532995,33.8059898 39.4358376,34.1313706 38.9893401,33.9166497 Z" id="Path" fill="#00FD8D"></path>
                        <path d="M26.684264,28.0012183 L13.3664975,21.5979695 L26.1876142,0.489137056 C26.4141117,0.116243655 26.8867005,-0.0239593909 27.2798985,0.165076142 L39.108731,5.85329949 C39.5609137,6.07076142 39.7264975,6.63106599 39.4650761,7.05928934 L26.684264,28.0012183 Z" id="Path" fill="#00E470"></path>
                        <path d="M26.684264,28.0012183 L13.3664975,21.5979695 L1.15949239,1.72 C0.819390863,1.16619289 1.41116751,0.510456853 1.99685279,0.792081218 L13.3664975,6.25939086 L26.684264,28.0012183 Z" id="Path" fill="#00C967"></path>
                        <path d="M12.4024365,33.9165482 L0.381116751,28.1358376 C0.148121827,28.0237563 0,27.7881218 0,27.5296447 L0,0.867817259 C0,0.388020305 0.501218274,0.0727918782 0.933705584,0.280812183 L13.3664975,6.25939086 L13.3664975,33.3103553 C13.3664975,33.8058883 12.848934,34.131269 12.4024365,33.9165482 Z" id="Path" fill="#00AD6C"></path>
                    </g>
                </g>
            </g>
        </g>
    </g>
</svg>